<?xml version="1.0" encoding="UTF-8"?>
<svg version="1.1" xmlns="http://www.w3.org/2000/svg" width="380" height="380">
  <path
    d="M0 0 C2.19715062 0.64713781 4.39509821 1.29157465 6.59375 1.93359375 C8.28951172 2.43221924 8.28951172 2.43221924 10.01953125 2.94091797 C15.81569309 4.60056532 21.65759715 6.07567942 27.5 7.5625 C62.00645828 16.45860036 62.00645828 16.45860036 67.9375 24.0625 C70.66560179 29.08220729 71.14454004 33.32727826 70.5 38.9375 C68.70256807 44.79199256 65.97757862 48.02389435 60.5 50.9375 C53.28971035 53.34092988 46.76621549 51.15778024 39.75 49.125 C38.82445312 48.86396484 37.89890625 48.60292969 36.9453125 48.33398438 C33.11991263 47.25509374 29.2977525 46.16486816 25.4753418 45.07543945 C24.50250244 44.80304443 23.52966309 44.53064941 22.52734375 44.25 C21.65070068 44.0025 20.77405762 43.755 19.87084961 43.5 C17.03164067 42.8263786 14.40588843 42.70188742 11.5 42.9375 C10.8185177 44.82929203 10.8185177 44.82929203 10.5 46.9375 C12.68806827 49.12556827 13.54686015 49.37070654 16.47265625 50.05078125 C17.2817041 50.24454346 18.09075195 50.43830566 18.92431641 50.63793945 C20.23021729 50.94090942 20.23021729 50.94090942 21.5625 51.25 C27.59743464 52.68774403 33.55836952 54.21014668 39.47607422 56.07543945 C48.57279782 58.93095494 55.82171315 60.87285535 64.8125 56.8125 C71.61803937 53.0150517 74.8595581 48.33073731 77.5 40.9375 C77.48324219 39.9990625 77.46648437 39.060625 77.44921875 38.09375 C79.20101193 32.83185822 83.82979845 31.38795959 88.5625 28.9375 C90.66774083 27.80016314 92.77187277 26.66077176 94.875 25.51953125 C95.96683594 24.93381348 97.05867187 24.3480957 98.18359375 23.74462891 C103.54580926 20.82272673 108.80007623 17.72187237 114.0625 14.625 C116.06502708 13.45950296 118.06762878 12.29413412 120.0703125 11.12890625 C123.34157185 9.21812392 126.58792469 7.27838888 129.8046875 5.27734375 C141.25408346 -1.76912306 141.25408346 -1.76912306 148.5 -0.0625 C154.2959819 1.77289427 158.40186117 4.51151806 161.6171875 9.76171875 C163.71316439 14.92746711 163.10605953 21.04802028 161.4375 26.25 C156.2564861 33.43656767 148.70949457 37.29885493 141.0625 41.4375 C138.81149041 42.67655305 136.56151509 43.91748665 134.3125 45.16015625 C133.17425781 45.78809082 132.03601563 46.41602539 130.86328125 47.06298828 C125.72099245 49.92902293 120.63939884 52.89508112 115.5625 55.875 C113.57559067 57.03918169 111.58861084 58.20324308 109.6015625 59.3671875 C108.60543945 59.95081055 107.60931641 60.53443359 106.58300781 61.13574219 C97.98691154 66.15943482 89.35818993 71.12676971 80.72363281 76.08398438 C78.55717276 77.32964968 76.39248287 78.57839824 74.22949219 79.83007812 C71.09456265 81.64389256 67.9542131 83.44796748 64.8125 85.25 C63.87462646 85.795354 62.93675293 86.34070801 61.97045898 86.90258789 C47.40217632 95.21456919 35.48469584 93.10014554 19.9375 89.0625 C17.06225463 88.33173921 14.18547037 87.60712183 11.30859375 86.8828125 C10.62130692 86.70926239 9.93402008 86.53571228 9.22590637 86.35690308 C-10.08000231 81.39312481 -10.08000231 81.39312481 -28.86328125 86.0625 C-30.5 86.9375 -30.5 86.9375 -32.5 86.9375 C-36.03708628 74.89635522 -39.32941347 62.82830654 -42.30786133 50.63647461 C-44.13124797 43.23510307 -46.21688066 35.95705133 -48.51953125 28.69140625 C-48.84308594 27.45261719 -49.16664062 26.21382812 -49.5 24.9375 C-49.69827393 24.19516113 -49.89654785 23.45282227 -50.10083008 22.68798828 C-50.58693881 20.27286461 -50.82528277 18.38258421 -50.5 15.9375 C-48.63892276 13.21932288 -46.25338673 11.5436318 -43.5625 9.6875 C-42.90958984 9.19765625 -42.25667969 8.7078125 -41.58398438 8.203125 C-27.29462065 -2.36285486 -17.41066101 -5.36471631 0 0 Z "
    fill="#10121D" transform="translate(169.5,204.0625)" />
  <path
    d="M0 0 C8.77853598 6.69790895 16.57316781 15.6523136 18.6875 26.8125 C18.77667199 28.37300976 18.8176671 29.93695308 18.8125 31.5 C18.81636719 32.68142578 18.81636719 32.68142578 18.8203125 33.88671875 C18.6875 35.8125 18.6875 35.8125 17.6875 36.8125 C15.04549939 36.91293271 12.4296141 36.9486685 9.78710938 36.94189453 C8.95951614 36.94364685 8.13192291 36.94539917 7.2792511 36.94720459 C4.52989638 36.95162393 1.78060543 36.94868483 -0.96875 36.9453125 C-2.87064629 36.94598552 -4.77254249 36.94695552 -6.67443848 36.94821167 C-10.66594255 36.94968875 -14.65742429 36.94753375 -18.64892578 36.94287109 C-23.77740507 36.9371738 -28.90583202 36.94045275 -34.03430939 36.94644356 C-37.96324054 36.95004889 -41.89215918 36.94891072 -45.8210907 36.94631577 C-47.71262112 36.94564642 -49.60415265 36.94647519 -51.49568176 36.94879532 C-54.13452177 36.95132138 -56.77327581 36.94748191 -59.41210938 36.94189453 C-60.59657906 36.94493088 -60.59657906 36.94493088 -61.80497742 36.94802856 C-67.19823749 36.92676251 -67.19823749 36.92676251 -68.3125 35.8125 C-69.10524827 24.71402417 -64.61954895 15.3942813 -57.71875 6.8359375 C-42.59507335 -9.35781061 -18.55947957 -12.18408582 0 0 Z "
    fill="#10121D" transform="translate(248.3125,155.1875)" />
  <path
    d="M0 0 C9.51903013 6.14882737 15.23882392 17.25470033 18 28 C18.31000498 30.50661173 18.27508567 32.46921182 18 35 C17 36 17 36 14.75376892 36.12025452 C13.76115555 36.11803391 12.76854218 36.11581329 11.74584961 36.11352539 C10.62476303 36.11344986 9.50367645 36.11337433 8.34861755 36.11329651 C6.51896202 36.10555458 6.51896202 36.10555458 4.65234375 36.09765625 C3.41078018 36.0962413 2.16921661 36.09482635 0.89002991 36.09336853 C-2.41605491 36.08870591 -5.72207146 36.07971497 -9.02813721 36.06866455 C-12.3996115 36.05844827 -15.77109283 36.05387045 -19.14257812 36.04882812 C-25.76173775 36.03777395 -32.38086493 36.02101736 -39 36 C-39.2575708 35.26539551 -39.5151416 34.53079102 -39.78051758 33.77392578 C-40.12751709 32.7992334 -40.4745166 31.82454102 -40.83203125 30.8203125 C-41.17210205 29.85883301 -41.51217285 28.89735352 -41.86254883 27.90673828 C-45.38497115 18.90524437 -50.94899973 12.48692024 -58 6 C-41.56637895 -11.42959808 -19.94845097 -11.57847154 0 0 Z "
    fill="#10121D" transform="translate(313,145)" />
  <path
    d="M0 0 C2.17924746 1.56240274 4.04672739 3.15524253 6 5 C5.125 6.02083333 4.25 7.04166667 3.375 8.0625 C2.82585937 8.71089844 2.27671875 9.35929687 1.7109375 10.02734375 C0.66381905 11.23463786 -0.40921237 12.42075426 -1.5234375 13.56640625 C-7.32528759 19.69058134 -11.0821629 27.8186237 -13 36 C-20.28421548 36.02312916 -27.5684231 36.04091801 -34.85266781 36.05181217 C-38.23471813 36.05703975 -41.6167434 36.06413511 -44.9987793 36.07543945 C-48.88329777 36.08834267 -52.76780597 36.09322924 -56.65234375 36.09765625 C-57.87211411 36.10281754 -59.09188446 36.10797882 -60.34861755 36.11329651 C-62.03024742 36.11340981 -62.03024742 36.11340981 -63.74584961 36.11352539 C-64.73846298 36.115746 -65.73107635 36.11796661 -66.75376892 36.12025452 C-69 36 -69 36 -70 35 C-70.65878066 24.39774877 -65.60540619 14.30785205 -59.25 6.0625 C-42.61829339 -11.40740933 -19.72961399 -11.44597464 0 0 Z "
    fill="#10121D" transform="translate(186,145)" />
  <path
    d="M0 0 C2.77927397 5.88648587 4.31631691 11.80372783 5.8125 18.125 C7.71728576 25.9685163 9.72918451 33.75444395 12 41.5 C14.52454711 50.13756947 16.76804496 58.82793023 18.90820312 67.56835938 C19.13830078 68.50744141 19.36839844 69.44652344 19.60546875 70.4140625 C19.83024902 71.33348633 20.0550293 72.25291016 20.28662109 73.20019531 C21.25309062 76.99330705 22.33806134 80.75034035 23.44262695 84.50537109 C24.01852338 87.08290489 24.09987385 89.3679264 24 92 C17.42625722 94.93750762 10.308881 97.9878388 3 98 C0.06747977 95.75797129 -0.61388605 93.58294815 -1.4296875 90.0546875 C-1.66494141 89.06919922 -1.90019531 88.08371094 -2.14257812 87.06835938 C-2.38427734 86.01455078 -2.62597656 84.96074219 -2.875 83.875 C-3.40083366 81.67380548 -3.92949204 79.47328388 -4.4609375 77.2734375 C-4.72100586 76.19545898 -4.98107422 75.11748047 -5.24902344 74.00683594 C-6.21662413 70.13265838 -7.32812856 66.31643592 -8.5 62.5 C-10.87659843 54.70268552 -12.8254514 46.81648334 -14.75634766 38.8984375 C-16.44599129 32.03007456 -18.30609781 25.24428507 -20.52734375 18.52734375 C-22.00931458 13.82625746 -22.18316258 9.86996985 -22 5 C-14.60462993 2.14564664 -8.06331174 -0.32911476 0 0 Z "
    fill="#10121D" transform="translate(108,214)" />
  <path
    d="M0 0 C6.98242443 3.89130404 11.40269347 9.24355081 13.75 16.9375 C14.91653312 24.61069567 13.15753342 30.59702422 8.75 36.9375 C3.96793817 42.24981098 -0.55673883 45.48191378 -7.78515625 46.18359375 C-14.16746756 46.47329977 -19.0806156 45.83912839 -24.25 41.9375 C-30.24776963 36.37417646 -34.24207145 30.47326148 -34.75 22.125 C-34.51895799 15.52523475 -31.97025179 10.0066677 -27.60546875 5.08203125 C-19.54259927 -2.28921511 -10.05823055 -4.58292309 0 0 Z "
    fill="#10121D" transform="translate(170.25,86.0625)" />
  <path
    d="M0 0 C6.98242443 3.89130404 11.40269347 9.24355081 13.75 16.9375 C14.91809656 24.6209796 13.1185495 30.56624015 8.75 36.9375 C4.29032334 41.96920169 -1.07300495 45.43024873 -7.85546875 46.25390625 C-14.18467624 46.52453443 -19.13081843 45.80123746 -24.25 41.9375 C-30.24776963 36.37417646 -34.24207145 30.47326148 -34.75 22.125 C-34.51895799 15.52523475 -31.97025179 10.0066677 -27.60546875 5.08203125 C-19.54259927 -2.28921511 -10.05823055 -4.58292309 0 0 Z "
    fill="#10121D" transform="translate(297.25,86.0625)" />
  <path
    d="M0 0 C6.28507114 2.79062098 10.84690936 8.12323149 13.98828125 14.1328125 C15.4027874 22.30551472 15.63858646 29.32963475 11.03515625 36.48046875 C6.57474214 42.19684157 0.9828304 45.81952134 -6.24609375 46.73828125 C-13.52849891 47.08022159 -18.68777987 45.92351086 -24.44921875 41.3828125 C-29.51645659 36.69697966 -31.99943602 32.19886385 -32.8203125 25.234375 C-32.971401 17.89325141 -32.48759016 12.91242512 -27.44921875 7.3828125 C-19.46515169 -0.58343298 -11.306751 -2.84922912 0 0 Z "
    fill="#10121D" transform="translate(232.44921875,96.6171875)" />
</svg>