<?xml version="1.0" encoding="UTF-8"?>
<svg version="1.1" xmlns="http://www.w3.org/2000/svg" width="381" height="365">

    <path
        d="M0 0 C1.47298946 -0.00269889 2.94597717 -0.00658461 4.41896057 -0.01159668 C7.49798637 -0.01747504 10.5765462 -0.00898453 13.65551758 0.00976562 C17.58402153 0.03253485 21.51143097 0.0194356 25.43989468 -0.00452423 C28.47960003 -0.01904502 31.51905005 -0.0143474 34.5587635 -0.00401306 C36.00630895 -0.00136201 37.45387827 -0.00455793 38.9013958 -0.01393127 C55.25385255 -0.09658964 55.25385255 -0.09658964 61.78125 6.34765625 C62.14347656 6.92386719 62.50570312 7.50007813 62.87890625 8.09375 C63.44931641 8.96193359 63.44931641 8.96193359 64.03125 9.84765625 C65.88888622 13.28388462 66.07190311 16.12861466 66.08857727 19.95657349 C66.09931023 21.64711601 66.09931023 21.64711601 66.11026001 23.37181091 C66.11294891 24.60923538 66.11563782 25.84665985 66.1184082 27.12158203 C66.1249794 28.4242955 66.1315506 29.72700897 66.13832092 31.06919861 C66.15934924 35.39247407 66.16972458 39.71574982 66.1796875 44.0390625 C66.18373601 45.52937717 66.18785296 47.01969166 66.19203758 48.51000595 C66.21108936 55.51471685 66.22531841 62.51941723 66.23364955 69.52414906 C66.24341161 77.59794526 66.26970395 85.67146655 66.31015044 93.74516594 C66.34036788 99.99245146 66.35512388 106.23965845 66.35843056 112.4870156 C66.36077535 116.21477643 66.36966013 119.94224357 66.39489174 123.66992569 C66.42262758 127.83497486 66.4183242 131.99941497 66.41137695 136.16455078 C66.43059204 138.00246941 66.43059204 138.00246941 66.45019531 139.8775177 C66.4044995 147.40559639 65.75777633 154.37263878 60.45862293 160.14700508 C56.04716306 164.01259755 52.65652854 164.65668962 46.9609375 164.62890625 C45.79755859 164.62568359 44.63417969 164.62246094 43.43554688 164.61914062 C42.22060547 164.61076172 41.00566406 164.60238281 39.75390625 164.59375 C38.52736328 164.58923828 37.30082031 164.58472656 36.03710938 164.58007812 C33.00515957 164.56828065 29.97330719 164.55181921 26.94140625 164.53125 C27.43871277 169.50431516 28.49442959 173.16924813 30.94140625 177.53125 C29.42185634 179.40816442 27.88023928 181.25434181 26.31640625 183.09375 C25.88972656 183.62677734 25.46304688 184.15980469 25.0234375 184.70898438 C23.71484375 186.22265625 23.71484375 186.22265625 20.94140625 188.53125 C17.65578996 188.43461423 15.5437807 187.8007333 12.56640625 186.46875 C7.97425547 184.82869615 4.07772158 184.71256337 -0.43359375 186.44140625 C-5.39093493 188.97715149 -8.51211307 191.43828863 -11.05859375 196.53125 C-11.74539317 198.85873694 -12.41620418 201.19111656 -13.05859375 203.53125 C-16.12392539 205.06391582 -19.32613647 204.63401471 -22.68359375 204.59375 C-23.39 204.58923828 -24.09640625 204.58472656 -24.82421875 204.58007812 C-26.5690465 204.56828875 -28.31383075 204.55035324 -30.05859375 204.53125 C-30.22875 203.93957031 -30.39890625 203.34789062 -30.57421875 202.73828125 C-33.01744443 194.70803913 -33.01744443 194.70803913 -39.22265625 189.34375 C-44.77919484 186.86653156 -49.98553536 185.5054743 -56.05859375 186.53125 C-58.08096427 187.48519836 -60.08686335 188.47660351 -62.05859375 189.53125 C-66.13488232 189.2589301 -68.08861515 186.80872765 -70.80859375 183.96875 C-71.6078125 183.14246094 -72.40703125 182.31617188 -73.23046875 181.46484375 C-73.83375 180.82675781 -74.43703125 180.18867188 -75.05859375 179.53125 C-74.08005237 177.05200441 -73.09999838 174.61635951 -71.93359375 172.21875 C-69.97358476 166.19872238 -70.61871164 161.89128915 -73.24609375 156.28125 C-77.11031853 149.23281764 -81.68254745 147.03160468 -89.05859375 144.53125 C-89.05859375 140.24125 -89.05859375 135.95125 -89.05859375 131.53125 C-86.73828125 130.726875 -86.73828125 130.726875 -84.37109375 129.90625 C-77.91831324 127.29961833 -74.9985929 124.09558287 -72.24609375 117.65625 C-70.82836689 113.37862586 -70.55861096 110.0310951 -71.05859375 105.53125 C-72.00356793 103.5949584 -72.00356793 103.5949584 -73.18359375 101.78125 C-73.80234375 100.70875 -74.42109375 99.63625 -75.05859375 98.53125 C-73.92550626 95.13198752 -71.69374553 92.77872232 -69.24609375 90.21875 C-68.57964844 89.50074219 -67.91320312 88.78273438 -67.2265625 88.04296875 C-65.05859375 86.53125 -65.05859375 86.53125 -62.546875 86.67578125 C-60.05859375 87.53125 -60.05859375 87.53125 -58.03515625 88.56640625 C-53.42858878 90.81506666 -48.12916775 90.17549517 -43.359375 88.69140625 C-37.25542527 85.98158103 -33.69443653 82.69789613 -31.05859375 76.53125 C-30.56359375 74.55125 -30.56359375 74.55125 -30.05859375 72.53125 C-24.44859375 72.53125 -18.83859375 72.53125 -13.05859375 72.53125 C-12.50171875 74.26375 -11.94484375 75.99625 -11.37109375 77.78125 C-9.68936605 82.38387318 -8.4397431 85.02773609 -4.05859375 87.53125 C-2.69734375 88.3975 -2.69734375 88.3975 -1.30859375 89.28125 C2.89561705 90.89825415 6.48760876 91.16407374 10.94140625 90.53125 C12.95666794 89.56237419 14.95974591 88.5671179 16.94140625 87.53125 C21.41009937 87.80781407 23.37237724 89.45186279 26.31640625 92.71875 C29.92101127 96.98058564 29.92101127 96.98058564 30.06640625 100.90625 C28.94140625 103.53125 28.94140625 103.53125 26.94140625 106.53125 C26.19845523 112.67748118 26.27433572 118.34677098 29.94140625 123.53125 C33.78706992 127.37691367 37.88545546 128.81736838 42.94140625 130.53125 C42.94140625 135.48125 42.94140625 140.43125 42.94140625 145.53125 C40.62109375 146.335625 40.62109375 146.335625 38.25390625 147.15625 C33.26776694 149.13656065 30.85855911 151.05828229 27.94140625 155.53125 C27.94140625 156.19125 27.94140625 156.85125 27.94140625 157.53125 C31.67144735 157.45013292 35.39988225 157.33730925 39.12890625 157.21875 C40.18400391 157.19619141 41.23910156 157.17363281 42.32617188 157.15039062 C43.34775391 157.11494141 44.36933594 157.07949219 45.421875 157.04296875 C46.35926514 157.01678467 47.29665527 156.99060059 48.26245117 156.96362305 C51.421097 156.45382976 53.35533124 155.3890216 55.94140625 153.53125 C57.24621939 150.92162373 57.07621474 149.00221517 57.08857727 146.0786438 C57.09573257 144.92052185 57.10288788 143.7623999 57.11026001 142.56918335 C57.11294891 141.29225616 57.11563782 140.01532898 57.1184082 138.69970703 C57.12467211 137.3463117 57.13131885 135.99291809 57.13832092 134.63952637 C57.15573554 130.95768146 57.1662836 127.27584953 57.17452645 123.59397364 C57.1796749 121.29469101 57.18575065 118.99541243 57.19203758 116.69613266 C57.21108967 109.5050849 57.22532161 102.31404743 57.23364955 95.12297928 C57.24342764 86.8165048 57.26976174 78.5102964 57.31015044 70.20391572 C57.34028412 63.78687852 57.35511574 57.36991772 57.35843056 50.95281112 C57.36078392 47.11844643 57.36978106 43.28436599 57.39489174 39.45007706 C57.41813025 35.84341013 57.42242313 32.23721547 57.41213036 28.63049316 C57.41139702 26.67507901 57.43051732 24.71968906 57.45019531 22.76437378 C57.4432515 21.60061218 57.43630768 20.43685059 57.42915344 19.23782349 C57.43273597 17.72076152 57.43273597 17.72076152 57.43639088 16.17305183 C56.81445414 12.85368892 55.49153151 11.65904237 52.94140625 9.53125 C50.88714105 12.47827683 50.88714105 12.47827683 49.37890625 15.65625 C47.94140625 18.53125 47.94140625 18.53125 46.94140625 19.53125 C45.19211905 19.62490006 43.43904371 19.64869438 41.68725586 19.64477539 C40.56616928 19.64469986 39.4450827 19.64462433 38.2900238 19.64454651 C36.46036827 19.63680458 36.46036827 19.63680458 34.59375 19.62890625 C33.35218643 19.6274913 32.11062286 19.62607635 30.83143616 19.62461853 C27.52535134 19.61995591 24.21933479 19.61096497 20.91326904 19.59991455 C17.54179475 19.58969827 14.17031342 19.58512045 10.79882812 19.58007812 C4.17966607 19.56902395 -2.43945446 19.5517466 -9.05859375 19.53125 C-10.70859375 16.23125 -12.35859375 12.93125 -14.05859375 9.53125 C-17.33632879 10.28275023 -17.33632879 10.28275023 -19.05859375 13.53125 C-19.38602804 15.89355346 -19.38602804 15.89355346 -19.37744141 18.5534668 C-19.3973111 19.57429855 -19.41718079 20.59513031 -19.43765259 21.64689636 C-19.4492038 22.74697525 -19.460755 23.84705414 -19.47265625 24.98046875 C-19.4920224 26.1082222 -19.51138855 27.23597565 -19.53134155 28.39790344 C-19.59118682 32.00477503 -19.63754297 35.61167844 -19.68359375 39.21875 C-19.72176893 41.6621234 -19.76082039 44.10548328 -19.80078125 46.54882812 C-19.89689245 52.54284884 -19.98192553 58.53695079 -20.05859375 64.53125 C-22.36859375 64.53125 -24.67859375 64.53125 -27.05859375 64.53125 C-27.18577834 57.27232656 -27.27310659 50.01369239 -27.33325195 42.75390625 C-27.35833533 40.2863491 -27.39241022 37.8188658 -27.43579102 35.3515625 C-27.49671122 31.79668922 -27.52486662 28.2428016 -27.546875 24.6875 C-27.57268143 23.59135376 -27.59848785 22.49520752 -27.62507629 21.36584473 C-27.62756651 14.5050545 -26.82633988 9.66494113 -22.05859375 4.53125 C-15.65788222 -0.96766925 -8.07012508 -0.0521733 0 0 Z "
        fill="#10121D" transform="translate(249.05859375,88.46875)" />
        
    <path
        d="M0 0 C46.53 0 93.06 0 141 0 C140.34 9.24 139.68 18.48 139 28 C132 27 132 27 129.5 25.375 C125.89221278 23.39071703 123.95503099 23.99161174 120 25 C117.59108419 26.68928674 115.6707186 28.71194932 113.6875 30.875 C112.90149414 31.68904297 112.90149414 31.68904297 112.09960938 32.51953125 C109.81862064 34.9085822 107.83537832 37.24693252 106 40 C106.37373443 43.00795938 107.61593244 45.22175814 109.125 47.8125 C111.21710922 51.91303407 111.25432503 54.48442989 110 59 C108.17793531 63.73736818 106.59891393 65.85384017 102 68 C99.34625622 69.03842148 96.67583254 70.0188614 94 71 C93.67 71.33 93.34 71.66 93 72 C90.29161914 72.09514592 87.60881487 72.12554932 84.90014648 72.11352539 C84.05143982 72.11367142 83.20273315 72.11381744 82.32830811 72.1139679 C79.50921109 72.11326848 76.69017929 72.10547478 73.87109375 72.09765625 C71.92196183 72.09579217 69.97282945 72.09436822 68.0236969 72.09336853 C62.88293168 72.08954255 57.74219453 72.07971159 52.60144043 72.06866455 C47.35994852 72.05845215 42.1184521 72.05387128 36.87695312 72.04882812 C26.58462306 72.03808939 16.29231386 72.02101201 6 72 C5.21506865 63.35087468 4.43254877 54.70153554 3.65309143 46.05191517 C3.29106835 42.03539723 2.92822066 38.01895737 2.56347656 34.00268555 C2.21139385 30.12549187 1.86149276 26.24810689 1.51309204 22.37058067 C1.37990714 20.892575 1.24594138 19.41463947 1.11117554 17.93677711 C0.92229865 15.86403856 0.7362202 13.79106614 0.55078125 11.71801758 C0.44419189 10.53887283 0.33760254 9.35972809 0.2277832 8.14485168 C0.03157507 5.43593605 0 2.71601207 0 0 Z "
        fill="#10121D" transform="translate(61,144)" />
    <path
        d="M0 0 C7.06569612 5.03618766 13.77221172 11.92900366 15.9140625 20.54296875 C17.83845719 32.36658019 17.14242811 42.22385783 10.375 52.375 C9.98054688 52.98730469 9.58609375 53.59960938 9.1796875 54.23046875 C4.16870763 61.0461022 -4.39251578 65.84861235 -12.625 67.375 C-23.5927058 68.55856537 -32.41708214 66.86380215 -41.41796875 60.35546875 C-50.60160483 52.60974319 -54.70114261 44.36388269 -55.9140625 32.5625 C-56.41505263 22.43722571 -53.31893898 14.18876064 -46.8125 6.4375 C-34.04498177 -6.78429322 -15.89654908 -9.79924258 0 0 Z "
        fill="#10121D" transform="translate(245.625,195.625)" />
    <path
        d="M0 0 C1.04414063 0.72123047 1.04414063 0.72123047 2.109375 1.45703125 C3.4396875 2.32328125 3.4396875 2.32328125 4.796875 3.20703125 C13.66902879 11.8393971 19.01259585 22.7969321 19.484375 35.14453125 C19.25001923 46.75978916 14.94606635 58.09380537 7.07421875 66.67578125 C-3.43128104 76.60690627 -14.91395272 79.99551363 -29.13671875 79.76953125 C-40.43978772 78.82858898 -50.50693133 72.68560602 -58.2578125 64.57421875 C-66.66539763 53.67251746 -69.24717594 40.92419074 -67.890625 27.45703125 C-65.35969838 15.79463643 -58.39881457 6.45823836 -48.890625 -0.54296875 C-33.12409634 -10.04145849 -15.54639063 -10.17446903 0 0 Z M-52.640625 12.3359375 C-59.51355825 20.8411924 -62.02955428 29.60205098 -60.890625 40.45703125 C-59.18449767 50.89119842 -54.43012356 59.19837617 -46.203125 65.8828125 C-37.31593551 71.9327067 -28.52293225 73.74468092 -17.890625 72.45703125 C-8.63936992 70.50493156 -0.62962596 65.54300149 4.99609375 57.890625 C6.49756139 55.45119452 7.86409936 53.03592979 9.109375 50.45703125 C9.48449219 49.70292969 9.85960937 48.94882813 10.24609375 48.171875 C11.40771378 44.51881653 11.45105698 41.00193873 11.421875 37.20703125 C11.41623535 36.44849854 11.4105957 35.68996582 11.40478516 34.90844727 C11.17286945 24.20703014 7.6749905 17.21051563 0.2578125 9.54296875 C-7.89142453 1.913205 -16.86623146 -0.96500361 -27.921875 -0.81640625 C-37.88754605 0.1014845 -45.92517467 5.12582231 -52.640625 12.3359375 Z "
        fill="none" transform="translate(250.890625,190.54296875)" />
    <path
        d="M0 0 C2.99162145 0.21508389 3.98993294 0.98974686 6.11328125 3.15234375 C8.43007599 6.08640174 10.73325312 9.02703048 13 12 C13.71800781 12.91652344 14.43601563 13.83304688 15.17578125 14.77734375 C15.81902344 15.63457031 16.46226562 16.49179688 17.125 17.375 C17.70507812 18.14585938 18.28515625 18.91671875 18.8828125 19.7109375 C20 22 20 22 19.97265625 24.359375 C18.6507069 27.94828167 16.57540201 30.83291825 14.3125 33.875 C13.86277832 34.49197754 13.41305664 35.10895508 12.94970703 35.74462891 C9.81787185 40.00325003 6.54821932 44.07828391 3 48 C1.68 47.67 0.36 47.34 -1 47 C-1.80859375 44.92578125 -1.80859375 44.92578125 -2 42 C-0.43476407 39.50439954 1.06294572 37.42053478 2.9375 35.1875 C3.41896484 34.59001953 3.90042969 33.99253906 4.39648438 33.37695312 C5.58420704 31.90699933 6.79037081 30.4519802 8 29 C7.34045319 28.99191315 6.68090637 28.98382629 6.00137329 28.97549438 C-0.84401207 28.88964428 -7.68910129 28.79014997 -14.53417969 28.68261719 C-17.09109537 28.6442602 -19.64806625 28.60941938 -22.20507812 28.578125 C-25.87389909 28.53262024 -29.54233773 28.4746019 -33.2109375 28.4140625 C-34.35992523 28.40251129 -35.50891296 28.39096008 -36.69271851 28.37905884 C-37.7536673 28.35918915 -38.81461609 28.33931946 -39.90771484 28.31884766 C-40.84481293 28.30552399 -41.78191101 28.29220032 -42.74740601 28.2784729 C-45 28 -45 28 -47 26 C-46.44444444 21.44444444 -46.44444444 21.44444444 -45 20 C-43.34355634 19.87709282 -41.68201007 19.82216092 -40.02124023 19.79467773 C-38.96021591 19.77473251 -37.89919159 19.75478729 -36.80601501 19.73423767 C-35.651866 19.71752518 -34.49771698 19.70081268 -33.30859375 19.68359375 C-31.5461306 19.6524221 -31.5461306 19.6524221 -29.74806213 19.62062073 C-25.97793676 19.55499876 -22.20773918 19.4961817 -18.4375 19.4375 C-15.88866427 19.3943268 -13.33983597 19.35071292 -10.79101562 19.30664062 C-4.52742108 19.19930455 1.73624601 19.0975621 8 19 C6.89978516 17.67935547 6.89978516 17.67935547 5.77734375 16.33203125 C4.82993487 15.15949551 3.88336365 13.9862826 2.9375 12.8125 C2.45216797 12.23435547 1.96683594 11.65621094 1.46679688 11.06054688 C-2.03019547 6.67070542 -2.03019547 6.67070542 -1.87109375 3.13671875 C-1 1 -1 1 0 0 Z "
        fill="#10121D" transform="translate(169,67)" />
    <path
        d="M0 0 C0.84372665 0.00719055 1.68745331 0.0143811 2.55674744 0.02178955 C3.44461441 0.0214975 4.33248138 0.02120544 5.24725342 0.02090454 C8.1908485 0.02230126 11.1341925 0.03787849 14.07774353 0.05352783 C16.11512616 0.05725675 18.15251057 0.06010429 20.18989563 0.06210327 C25.55919828 0.06974929 30.92839319 0.08940609 36.2976532 0.11151123 C41.77381431 0.13194882 47.24999279 0.14110052 52.72618103 0.15118408 C63.47622844 0.17265107 74.22619578 0.20679867 84.97618103 0.24884033 C84.97618103 3.21884033 84.97618103 6.18884033 84.97618103 9.24884033 C73.14581266 9.29510721 61.31546569 9.33068072 49.48502541 9.35246468 C43.992136 9.36291796 38.49930833 9.37710526 33.00645447 9.39971924 C27.70912949 9.42139264 22.41186402 9.43339731 17.11449814 9.43859482 C15.0898126 9.44230049 13.06513044 9.44953637 11.04047012 9.46030045 C8.21249001 9.47474227 5.38475827 9.47682135 2.55674744 9.47589111 C1.71302078 9.48308167 0.86929413 9.49027222 0 9.49768066 C-5.79571465 9.47694465 -5.79571465 9.47694465 -8.02381897 7.24884033 C-8.27381897 4.74884033 -8.27381897 4.74884033 -8.02381897 2.24884033 C-5.40511838 -0.36986026 -3.56485611 0.0127544 0 0 Z "
        fill="#10121D" transform="translate(68.02381896972656,222.75115966796875)" />
    <path
        d="M0 0 C2.625 0.375 2.625 0.375 5 1 C5.5722959 4.79861401 4.96855588 6.04789614 2.8125 9.33203125 C1.88716783 10.5019155 0.94920935 11.66190434 0 12.8125 C-0.47695312 13.40998047 -0.95390625 14.00746094 -1.4453125 14.62304688 C-2.61944235 16.09070918 -3.80830803 17.54656139 -5 19 C-4.32792511 19.00808685 -3.65585022 19.01617371 -2.96340942 19.02450562 C4.011733 19.11035284 10.98658469 19.20984703 17.96142578 19.31738281 C20.56684499 19.35574082 23.1723184 19.39058145 25.77783203 19.421875 C29.51614803 19.46737751 33.25408865 19.52539626 36.9921875 19.5859375 C38.16304901 19.59748871 39.33391052 19.60903992 40.54025269 19.62094116 C42.161707 19.6507457 42.161707 19.6507457 43.81591797 19.68115234 C44.77078094 19.69447601 45.72564392 19.70779968 46.70944214 19.7215271 C49 20 49 20 51 22 C50.46428571 25.53571429 50.46428571 25.53571429 49 27 C47.31290653 27.12299166 45.62079097 27.17785258 43.92944336 27.20532227 C42.84839828 27.22526749 41.76735321 27.24521271 40.65354919 27.26576233 C38.889515 27.29083107 38.889515 27.29083107 37.08984375 27.31640625 C35.89267227 27.33718735 34.69550079 27.35796844 33.46205139 27.37937927 C29.62059513 27.44500279 25.77906799 27.50381903 21.9375 27.5625 C19.34048733 27.60567305 16.74348194 27.64928693 14.14648438 27.69335938 C7.76439883 27.80069716 1.38224207 27.90243931 -5 28 C-4.26652344 28.95261719 -3.53304687 29.90523437 -2.77734375 30.88671875 C-1.82993745 32.1530539 -0.88336614 33.42001405 0.0625 34.6875 C0.79049805 35.62625977 0.79049805 35.62625977 1.53320312 36.58398438 C5.04283955 41.33817272 5.04283955 41.33817272 4.80859375 44.95703125 C4.54175781 45.63121094 4.27492188 46.30539063 4 47 C1.7175293 47.25317383 1.7175293 47.25317383 -1 47 C-2.82104492 45.3034668 -2.82104492 45.3034668 -4.48046875 42.94921875 C-5.08697266 42.10552734 -5.69347656 41.26183594 -6.31835938 40.39257812 C-6.93517578 39.49990234 -7.55199219 38.60722656 -8.1875 37.6875 C-8.81591797 36.80642578 -9.44433594 35.92535156 -10.09179688 35.01757812 C-17.02536888 25.26608381 -17.02536888 25.26608381 -16.81811523 23.09228516 C-15.83279692 20.57238724 -14.5283956 18.69316695 -12.91015625 16.5234375 C-12.29076172 15.688125 -11.67136719 14.8528125 -11.03320312 13.9921875 C-10.38287109 13.12851563 -9.73253906 12.26484375 -9.0625 11.375 C-8.41603516 10.50359375 -7.76957031 9.6321875 -7.10351562 8.734375 C-2.32990597 2.32990597 -2.32990597 2.32990597 0 0 Z "
        fill="#10121D" transform="translate(105,86)" />
  </svg>