<svg width="321" height="325" viewBox="0 0 321 325" fill="none" xmlns="http://www.w3.org/2000/svg">
<g filter="url(#filter0_i_1_1676)">
<path d="M159.074 162.478V165.445L161.463 163.686L288.814 69.9474L290.008 69.0692L289.144 67.8652C259.247 26.1762 211.451 1.5 160.574 1.5H159.074V3V162.478Z" fill="#4C4E5F" stroke="#060604" stroke-width="3"/>
<path d="M159.685 161.27L158.816 161.91L159.145 162.937L207.789 314.61L208.251 316.049L209.687 315.576C225.548 310.355 240.498 302.638 253.989 292.707C324.989 240.447 340.72 139.784 289.144 67.8652L288.259 66.6311L287.036 67.5313L159.685 161.27Z" fill="#21242C" stroke="#060604" stroke-width="3"/>
<path d="M210.646 313.693L162.074 162.244V3V1.5H160.574C143.896 1.5 127.322 4.15949 111.461 9.38064C27.9815 36.8603 -17.6774 127.681 9.43501 212.218C36.55 296.764 126.198 343.059 209.687 315.576L211.101 315.111L210.646 313.693Z" fill="#424453" stroke="#060604" stroke-width="3"/>
<path d="M40.732 148.168C40.0693 148.168 39.4533 148.047 38.884 147.804C38.324 147.561 37.8387 147.225 37.428 146.796C37.0267 146.357 36.7327 145.849 36.546 145.27L38.128 144.584C38.38 145.181 38.744 145.653 39.22 145.998C39.696 146.334 40.2327 146.502 40.83 146.502C41.166 146.502 41.4553 146.451 41.698 146.348C41.95 146.236 42.1413 146.087 42.272 145.9C42.412 145.713 42.482 145.489 42.482 145.228C42.482 144.92 42.3887 144.668 42.202 144.472C42.0247 144.267 41.754 144.108 41.39 143.996L39.388 143.352C38.576 143.1 37.9647 142.722 37.554 142.218C37.1433 141.714 36.938 141.121 36.938 140.44C36.938 139.843 37.0827 139.315 37.372 138.858C37.6707 138.401 38.0813 138.046 38.604 137.794C39.136 137.533 39.7427 137.402 40.424 137.402C41.0493 137.402 41.6233 137.514 42.146 137.738C42.6687 137.953 43.1167 138.256 43.49 138.648C43.8727 139.031 44.1573 139.483 44.344 140.006L42.776 140.706C42.5707 140.183 42.2627 139.782 41.852 139.502C41.4413 139.213 40.9653 139.068 40.424 139.068C40.1067 139.068 39.8267 139.124 39.584 139.236C39.3413 139.339 39.15 139.488 39.01 139.684C38.8793 139.871 38.814 140.095 38.814 140.356C38.814 140.645 38.9073 140.902 39.094 141.126C39.2807 141.341 39.5653 141.509 39.948 141.63L41.866 142.232C42.6967 142.503 43.3173 142.876 43.728 143.352C44.148 143.828 44.358 144.416 44.358 145.116C44.358 145.713 44.204 146.241 43.896 146.698C43.588 147.155 43.1633 147.515 42.622 147.776C42.0807 148.037 41.4507 148.168 40.732 148.168ZM49.5305 148.168C48.7465 148.168 48.0605 147.991 47.4725 147.636C46.8845 147.281 46.4271 146.801 46.1005 146.194C45.7738 145.587 45.6105 144.915 45.6105 144.178C45.6105 143.413 45.7738 142.736 46.1005 142.148C46.4365 141.551 46.8891 141.079 47.4585 140.734C48.0371 140.389 48.6811 140.216 49.3905 140.216C49.9878 140.216 50.5105 140.314 50.9585 140.51C51.4158 140.706 51.8031 140.977 52.1205 141.322C52.4378 141.667 52.6805 142.064 52.8485 142.512C53.0165 142.951 53.1005 143.427 53.1005 143.94C53.1005 144.071 53.0911 144.206 53.0725 144.346C53.0631 144.486 53.0398 144.607 53.0025 144.71H47.1225V143.31H51.9665L51.0985 143.968C51.1825 143.539 51.1591 143.156 51.0285 142.82C50.9071 142.484 50.7018 142.218 50.4125 142.022C50.1325 141.826 49.7918 141.728 49.3905 141.728C49.0078 141.728 48.6671 141.826 48.3685 142.022C48.0698 142.209 47.8411 142.489 47.6825 142.862C47.5331 143.226 47.4771 143.669 47.5145 144.192C47.4771 144.659 47.5378 145.074 47.6965 145.438C47.8645 145.793 48.1071 146.068 48.4245 146.264C48.7511 146.46 49.1245 146.558 49.5445 146.558C49.9645 146.558 50.3191 146.469 50.6085 146.292C50.9071 146.115 51.1405 145.877 51.3085 145.578L52.7925 146.306C52.6431 146.67 52.4098 146.992 52.0925 147.272C51.7751 147.552 51.3971 147.771 50.9585 147.93C50.5291 148.089 50.0531 148.168 49.5305 148.168ZM58.1587 148.168C57.4027 148.168 56.7214 147.995 56.1147 147.65C55.5174 147.295 55.0461 146.819 54.7007 146.222C54.3554 145.615 54.1827 144.934 54.1827 144.178C54.1827 143.422 54.3554 142.745 54.7007 142.148C55.0461 141.551 55.5174 141.079 56.1147 140.734C56.7214 140.389 57.4027 140.216 58.1587 140.216C58.7001 140.216 59.2041 140.314 59.6707 140.51C60.1374 140.697 60.5387 140.958 60.8747 141.294C61.2201 141.621 61.4674 142.013 61.6167 142.47L60.0067 143.17C59.8667 142.787 59.6287 142.479 59.2927 142.246C58.9661 142.013 58.5881 141.896 58.1587 141.896C57.7574 141.896 57.3981 141.994 57.0807 142.19C56.7727 142.386 56.5301 142.657 56.3527 143.002C56.1754 143.347 56.0867 143.744 56.0867 144.192C56.0867 144.64 56.1754 145.037 56.3527 145.382C56.5301 145.727 56.7727 145.998 57.0807 146.194C57.3981 146.39 57.7574 146.488 58.1587 146.488C58.5974 146.488 58.9801 146.371 59.3067 146.138C59.6334 145.905 59.8667 145.592 60.0067 145.2L61.6167 145.928C61.4674 146.357 61.2247 146.745 60.8887 147.09C60.5527 147.426 60.1514 147.692 59.6847 147.888C59.2181 148.075 58.7094 148.168 58.1587 148.168ZM66.7323 148.168C65.9856 148.168 65.3043 147.995 64.6883 147.65C64.0816 147.305 63.5963 146.833 63.2323 146.236C62.8776 145.639 62.7003 144.957 62.7003 144.192C62.7003 143.427 62.8776 142.745 63.2323 142.148C63.5963 141.551 64.0816 141.079 64.6883 140.734C65.295 140.389 65.9763 140.216 66.7323 140.216C67.479 140.216 68.1556 140.389 68.7623 140.734C69.369 141.079 69.8496 141.551 70.2043 142.148C70.5683 142.736 70.7503 143.417 70.7503 144.192C70.7503 144.957 70.5683 145.639 70.2043 146.236C69.8403 146.833 69.355 147.305 68.7483 147.65C68.1416 147.995 67.4696 148.168 66.7323 148.168ZM66.7323 146.488C67.143 146.488 67.5023 146.39 67.8103 146.194C68.1276 145.998 68.375 145.727 68.5523 145.382C68.739 145.027 68.8323 144.631 68.8323 144.192C68.8323 143.744 68.739 143.352 68.5523 143.016C68.375 142.671 68.1276 142.4 67.8103 142.204C67.5023 141.999 67.143 141.896 66.7323 141.896C66.3123 141.896 65.9436 141.999 65.6263 142.204C65.309 142.4 65.057 142.671 64.8703 143.016C64.693 143.352 64.6043 143.744 64.6043 144.192C64.6043 144.631 64.693 145.027 64.8703 145.382C65.057 145.727 65.309 145.998 65.6263 146.194C65.9436 146.39 66.3123 146.488 66.7323 146.488ZM72.1411 148V140.384H73.8631V141.882L73.7231 141.616C73.9004 141.159 74.1898 140.813 74.5911 140.58C75.0018 140.337 75.4778 140.216 76.0191 140.216C76.5791 140.216 77.0738 140.337 77.5031 140.58C77.9418 140.823 78.2824 141.163 78.5251 141.602C78.7678 142.031 78.8891 142.531 78.8891 143.1V148H77.0551V143.534C77.0551 143.198 76.9898 142.909 76.8591 142.666C76.7284 142.423 76.5464 142.237 76.3131 142.106C76.0891 141.966 75.8231 141.896 75.5151 141.896C75.2164 141.896 74.9504 141.966 74.7171 142.106C74.4838 142.237 74.3018 142.423 74.1711 142.666C74.0404 142.909 73.9751 143.198 73.9751 143.534V148H72.1411ZM83.9819 148.168C83.2446 148.168 82.5866 147.995 82.0079 147.65C81.4293 147.295 80.9719 146.815 80.6359 146.208C80.2999 145.601 80.1319 144.929 80.1319 144.192C80.1319 143.445 80.2999 142.773 80.6359 142.176C80.9719 141.579 81.4293 141.103 82.0079 140.748C82.5959 140.393 83.2493 140.216 83.9679 140.216C84.5466 140.216 85.0599 140.333 85.5079 140.566C85.9653 140.79 86.3246 141.107 86.5859 141.518L86.3059 141.896V137.402H88.1399V148H86.4039V146.53L86.5999 146.894C86.3386 147.305 85.9746 147.622 85.5079 147.846C85.0413 148.061 84.5326 148.168 83.9819 148.168ZM84.1779 146.488C84.5979 146.488 84.9666 146.39 85.2839 146.194C85.6013 145.998 85.8486 145.727 86.0259 145.382C86.2126 145.037 86.3059 144.64 86.3059 144.192C86.3059 143.753 86.2126 143.361 86.0259 143.016C85.8486 142.661 85.6013 142.386 85.2839 142.19C84.9666 141.994 84.5979 141.896 84.1779 141.896C83.7673 141.896 83.3986 141.999 83.0719 142.204C82.7453 142.4 82.4886 142.671 82.3019 143.016C82.1246 143.352 82.0359 143.744 82.0359 144.192C82.0359 144.64 82.1246 145.037 82.3019 145.382C82.4886 145.727 82.7453 145.998 83.0719 146.194C83.3986 146.39 83.7673 146.488 84.1779 146.488ZM92.1562 148.168C91.6242 148.168 91.1622 148.079 90.7702 147.902C90.3782 147.725 90.0749 147.473 89.8602 147.146C89.6455 146.81 89.5382 146.423 89.5382 145.984C89.5382 145.564 89.6315 145.191 89.8182 144.864C90.0049 144.528 90.2942 144.248 90.6862 144.024C91.0782 143.8 91.5729 143.641 92.1702 143.548L94.6622 143.142V144.542L92.5202 144.906C92.1562 144.971 91.8855 145.088 91.7082 145.256C91.5309 145.424 91.4422 145.643 91.4422 145.914C91.4422 146.175 91.5402 146.385 91.7362 146.544C91.9415 146.693 92.1935 146.768 92.4922 146.768C92.8749 146.768 93.2109 146.689 93.5002 146.53C93.7989 146.362 94.0275 146.133 94.1862 145.844C94.3542 145.555 94.4382 145.237 94.4382 144.892V142.932C94.4382 142.605 94.3075 142.335 94.0462 142.12C93.7942 141.896 93.4582 141.784 93.0382 141.784C92.6462 141.784 92.2962 141.891 91.9882 142.106C91.6895 142.311 91.4702 142.587 91.3302 142.932L89.8322 142.204C89.9815 141.803 90.2149 141.457 90.5322 141.168C90.8589 140.869 91.2415 140.636 91.6802 140.468C92.1189 140.3 92.5949 140.216 93.1082 140.216C93.7335 140.216 94.2842 140.333 94.7602 140.566C95.2362 140.79 95.6049 141.107 95.8662 141.518C96.1369 141.919 96.2722 142.391 96.2722 142.932V148H94.5362V146.698L94.9282 146.67C94.7322 146.997 94.4989 147.272 94.2282 147.496C93.9575 147.711 93.6495 147.879 93.3042 148C92.9589 148.112 92.5762 148.168 92.1562 148.168ZM97.9673 148V140.384H99.6893V142.078L99.5493 141.826C99.7266 141.257 100.002 140.86 100.375 140.636C100.758 140.412 101.215 140.3 101.747 140.3H102.195V141.924H101.537C101.015 141.924 100.595 142.087 100.277 142.414C99.9599 142.731 99.8013 143.179 99.8013 143.758V148H97.9673ZM104.128 151.08C103.922 151.08 103.722 151.061 103.526 151.024C103.33 150.996 103.152 150.94 102.994 150.856V149.33C103.115 149.358 103.26 149.386 103.428 149.414C103.605 149.442 103.768 149.456 103.918 149.456C104.338 149.456 104.641 149.358 104.828 149.162C105.024 148.975 105.196 148.723 105.346 148.406L105.85 147.23L105.822 148.77L102.504 140.384H104.478L106.802 146.572H106.102L108.412 140.384H110.4L107.082 148.77C106.886 149.255 106.648 149.671 106.368 150.016C106.088 150.361 105.761 150.623 105.388 150.8C105.024 150.987 104.604 151.08 104.128 151.08ZM37.008 166V155.57H43.938V157.25H38.912V159.924H43.658V161.604H38.912V164.32H43.938V166H37.008ZM45.1802 166V158.384H46.9022V160.148L46.7062 159.854C46.8462 159.303 47.1262 158.893 47.5462 158.622C47.9662 158.351 48.4608 158.216 49.0302 158.216C49.6555 158.216 50.2062 158.379 50.6822 158.706C51.1582 159.033 51.4662 159.462 51.6062 159.994L51.0882 160.036C51.3215 159.429 51.6715 158.977 52.1382 158.678C52.6048 158.37 53.1415 158.216 53.7482 158.216C54.2895 158.216 54.7702 158.337 55.1902 158.58C55.6195 158.823 55.9555 159.163 56.1982 159.602C56.4408 160.031 56.5622 160.531 56.5622 161.1V166H54.7282V161.534C54.7282 161.198 54.6675 160.909 54.5462 160.666C54.4248 160.423 54.2568 160.237 54.0422 160.106C53.8275 159.966 53.5662 159.896 53.2582 159.896C52.9688 159.896 52.7122 159.966 52.4882 160.106C52.2642 160.237 52.0915 160.423 51.9702 160.666C51.8488 160.909 51.7882 161.198 51.7882 161.534V166H49.9542V161.534C49.9542 161.198 49.8935 160.909 49.7722 160.666C49.6508 160.423 49.4782 160.237 49.2542 160.106C49.0395 159.966 48.7828 159.896 48.4842 159.896C48.1948 159.896 47.9382 159.966 47.7142 160.106C47.4902 160.237 47.3175 160.423 47.1962 160.666C47.0748 160.909 47.0142 161.198 47.0142 161.534V166H45.1802ZM58.1138 166V158.384H59.9478V166H58.1138ZM58.1138 157.53V155.57H59.9478V157.53H58.1138ZM64.5391 166.168C63.7271 166.168 63.0178 165.977 62.4111 165.594C61.8138 165.202 61.4031 164.675 61.1791 164.012L62.5511 163.354C62.7471 163.783 63.0178 164.119 63.3631 164.362C63.7178 164.605 64.1098 164.726 64.5391 164.726C64.8751 164.726 65.1411 164.651 65.3371 164.502C65.5331 164.353 65.6311 164.157 65.6311 163.914C65.6311 163.765 65.5891 163.643 65.5051 163.55C65.4304 163.447 65.3231 163.363 65.1831 163.298C65.0524 163.223 64.9078 163.163 64.7491 163.116L63.5031 162.766C62.8591 162.579 62.3691 162.295 62.0331 161.912C61.7064 161.529 61.5431 161.077 61.5431 160.554C61.5431 160.087 61.6598 159.681 61.8931 159.336C62.1358 158.981 62.4671 158.706 62.8871 158.51C63.3164 158.314 63.8064 158.216 64.3571 158.216C65.0758 158.216 65.7104 158.389 66.2611 158.734C66.8118 159.079 67.2038 159.565 67.4371 160.19L66.0371 160.848C65.9064 160.503 65.6871 160.227 65.3791 160.022C65.0711 159.817 64.7258 159.714 64.3431 159.714C64.0351 159.714 63.7924 159.784 63.6151 159.924C63.4378 160.064 63.3491 160.246 63.3491 160.47C63.3491 160.61 63.3864 160.731 63.4611 160.834C63.5358 160.937 63.6384 161.021 63.7691 161.086C63.9091 161.151 64.0678 161.212 64.2451 161.268L65.4631 161.632C66.0884 161.819 66.5691 162.099 66.9051 162.472C67.2504 162.845 67.4231 163.303 67.4231 163.844C67.4231 164.301 67.3018 164.707 67.0591 165.062C66.8164 165.407 66.4804 165.678 66.0511 165.874C65.6218 166.07 65.1178 166.168 64.5391 166.168ZM71.7305 166.168C70.9185 166.168 70.2092 165.977 69.6025 165.594C69.0052 165.202 68.5945 164.675 68.3705 164.012L69.7425 163.354C69.9385 163.783 70.2092 164.119 70.5545 164.362C70.9092 164.605 71.3012 164.726 71.7305 164.726C72.0665 164.726 72.3325 164.651 72.5285 164.502C72.7245 164.353 72.8225 164.157 72.8225 163.914C72.8225 163.765 72.7805 163.643 72.6965 163.55C72.6218 163.447 72.5145 163.363 72.3745 163.298C72.2438 163.223 72.0992 163.163 71.9405 163.116L70.6945 162.766C70.0505 162.579 69.5605 162.295 69.2245 161.912C68.8978 161.529 68.7345 161.077 68.7345 160.554C68.7345 160.087 68.8512 159.681 69.0845 159.336C69.3272 158.981 69.6585 158.706 70.0785 158.51C70.5078 158.314 70.9978 158.216 71.5485 158.216C72.2672 158.216 72.9018 158.389 73.4525 158.734C74.0032 159.079 74.3952 159.565 74.6285 160.19L73.2285 160.848C73.0978 160.503 72.8785 160.227 72.5705 160.022C72.2625 159.817 71.9172 159.714 71.5345 159.714C71.2265 159.714 70.9838 159.784 70.8065 159.924C70.6292 160.064 70.5405 160.246 70.5405 160.47C70.5405 160.61 70.5778 160.731 70.6525 160.834C70.7272 160.937 70.8298 161.021 70.9605 161.086C71.1005 161.151 71.2592 161.212 71.4365 161.268L72.6545 161.632C73.2798 161.819 73.7605 162.099 74.0965 162.472C74.4418 162.845 74.6145 163.303 74.6145 163.844C74.6145 164.301 74.4932 164.707 74.2505 165.062C74.0078 165.407 73.6718 165.678 73.2425 165.874C72.8132 166.07 72.3092 166.168 71.7305 166.168ZM76.0239 166V158.384H77.8579V166H76.0239ZM76.0239 157.53V155.57H77.8579V157.53H76.0239ZM83.2753 166.168C82.5286 166.168 81.8473 165.995 81.2313 165.65C80.6246 165.305 80.1393 164.833 79.7753 164.236C79.4206 163.639 79.2433 162.957 79.2433 162.192C79.2433 161.427 79.4206 160.745 79.7753 160.148C80.1393 159.551 80.6246 159.079 81.2313 158.734C81.8379 158.389 82.5193 158.216 83.2753 158.216C84.0219 158.216 84.6986 158.389 85.3053 158.734C85.9119 159.079 86.3926 159.551 86.7473 160.148C87.1113 160.736 87.2933 161.417 87.2933 162.192C87.2933 162.957 87.1113 163.639 86.7473 164.236C86.3833 164.833 85.8979 165.305 85.2913 165.65C84.6846 165.995 84.0126 166.168 83.2753 166.168ZM83.2753 164.488C83.6859 164.488 84.0453 164.39 84.3533 164.194C84.6706 163.998 84.9179 163.727 85.0953 163.382C85.2819 163.027 85.3753 162.631 85.3753 162.192C85.3753 161.744 85.2819 161.352 85.0953 161.016C84.9179 160.671 84.6706 160.4 84.3533 160.204C84.0453 159.999 83.6859 159.896 83.2753 159.896C82.8553 159.896 82.4866 159.999 82.1693 160.204C81.8519 160.4 81.5999 160.671 81.4133 161.016C81.2359 161.352 81.1473 161.744 81.1473 162.192C81.1473 162.631 81.2359 163.027 81.4133 163.382C81.5999 163.727 81.8519 163.998 82.1693 164.194C82.4866 164.39 82.8553 164.488 83.2753 164.488ZM88.6841 166V158.384H90.4061V159.882L90.2661 159.616C90.4434 159.159 90.7327 158.813 91.1341 158.58C91.5447 158.337 92.0207 158.216 92.5621 158.216C93.1221 158.216 93.6167 158.337 94.0461 158.58C94.4847 158.823 94.8254 159.163 95.0681 159.602C95.3107 160.031 95.4321 160.531 95.4321 161.1V166H93.5981V161.534C93.5981 161.198 93.5327 160.909 93.4021 160.666C93.2714 160.423 93.0894 160.237 92.8561 160.106C92.6321 159.966 92.3661 159.896 92.0581 159.896C91.7594 159.896 91.4934 159.966 91.2601 160.106C91.0267 160.237 90.8447 160.423 90.7141 160.666C90.5834 160.909 90.5181 161.198 90.5181 161.534V166H88.6841ZM37.008 184V173.57H40.9C41.6093 173.57 42.2347 173.701 42.776 173.962C43.3267 174.214 43.756 174.587 44.064 175.082C44.372 175.567 44.526 176.16 44.526 176.86C44.526 177.551 44.3673 178.143 44.05 178.638C43.742 179.123 43.3173 179.497 42.776 179.758C42.2347 180.019 41.6093 180.15 40.9 180.15H38.912V184H37.008ZM38.912 178.47H40.928C41.2733 178.47 41.572 178.405 41.824 178.274C42.076 178.134 42.272 177.943 42.412 177.7C42.552 177.457 42.622 177.177 42.622 176.86C42.622 176.533 42.552 176.253 42.412 176.02C42.272 175.777 42.076 175.591 41.824 175.46C41.572 175.32 41.2733 175.25 40.928 175.25H38.912V178.47ZM49.3827 184.168C48.636 184.168 47.9547 183.995 47.3387 183.65C46.732 183.305 46.2467 182.833 45.8827 182.236C45.528 181.639 45.3507 180.957 45.3507 180.192C45.3507 179.427 45.528 178.745 45.8827 178.148C46.2467 177.551 46.732 177.079 47.3387 176.734C47.9454 176.389 48.6267 176.216 49.3827 176.216C50.1294 176.216 50.806 176.389 51.4127 176.734C52.0194 177.079 52.5 177.551 52.8547 178.148C53.2187 178.736 53.4007 179.417 53.4007 180.192C53.4007 180.957 53.2187 181.639 52.8547 182.236C52.4907 182.833 52.0054 183.305 51.3987 183.65C50.792 183.995 50.12 184.168 49.3827 184.168ZM49.3827 182.488C49.7934 182.488 50.1527 182.39 50.4607 182.194C50.778 181.998 51.0254 181.727 51.2027 181.382C51.3894 181.027 51.4827 180.631 51.4827 180.192C51.4827 179.744 51.3894 179.352 51.2027 179.016C51.0254 178.671 50.778 178.4 50.4607 178.204C50.1527 177.999 49.7934 177.896 49.3827 177.896C48.9627 177.896 48.594 177.999 48.2767 178.204C47.9594 178.4 47.7074 178.671 47.5207 179.016C47.3434 179.352 47.2547 179.744 47.2547 180.192C47.2547 180.631 47.3434 181.027 47.5207 181.382C47.7074 181.727 47.9594 181.998 48.2767 182.194C48.594 182.39 48.9627 182.488 49.3827 182.488ZM58.5155 184.168C57.7688 184.168 57.0875 183.995 56.4715 183.65C55.8648 183.305 55.3795 182.833 55.0155 182.236C54.6608 181.639 54.4835 180.957 54.4835 180.192C54.4835 179.427 54.6608 178.745 55.0155 178.148C55.3795 177.551 55.8648 177.079 56.4715 176.734C57.0782 176.389 57.7595 176.216 58.5155 176.216C59.2622 176.216 59.9388 176.389 60.5455 176.734C61.1522 177.079 61.6328 177.551 61.9875 178.148C62.3515 178.736 62.5335 179.417 62.5335 180.192C62.5335 180.957 62.3515 181.639 61.9875 182.236C61.6235 182.833 61.1382 183.305 60.5315 183.65C59.9248 183.995 59.2528 184.168 58.5155 184.168ZM58.5155 182.488C58.9262 182.488 59.2855 182.39 59.5935 182.194C59.9108 181.998 60.1582 181.727 60.3355 181.382C60.5222 181.027 60.6155 180.631 60.6155 180.192C60.6155 179.744 60.5222 179.352 60.3355 179.016C60.1582 178.671 59.9108 178.4 59.5935 178.204C59.2855 177.999 58.9262 177.896 58.5155 177.896C58.0955 177.896 57.7268 177.999 57.4095 178.204C57.0922 178.4 56.8402 178.671 56.6535 179.016C56.4762 179.352 56.3875 179.744 56.3875 180.192C56.3875 180.631 56.4762 181.027 56.6535 181.382C56.8402 181.727 57.0922 181.998 57.4095 182.194C57.7268 182.39 58.0955 182.488 58.5155 182.488ZM63.9243 184V173.402H65.7583V184H63.9243Z" fill="white"/>
<path d="M198.008 174V163.57H201.9C202.609 163.57 203.235 163.701 203.776 163.962C204.327 164.214 204.756 164.587 205.064 165.082C205.372 165.567 205.526 166.16 205.526 166.86C205.526 167.551 205.367 168.143 205.05 168.638C204.742 169.123 204.317 169.497 203.776 169.758C203.235 170.019 202.609 170.15 201.9 170.15H199.912V174H198.008ZM199.912 168.47H201.928C202.273 168.47 202.572 168.405 202.824 168.274C203.076 168.134 203.272 167.943 203.412 167.7C203.552 167.457 203.622 167.177 203.622 166.86C203.622 166.533 203.552 166.253 203.412 166.02C203.272 165.777 203.076 165.591 202.824 165.46C202.572 165.32 202.273 165.25 201.928 165.25H199.912V168.47ZM206.932 174V166.384H208.654V168.078L208.514 167.826C208.691 167.257 208.967 166.86 209.34 166.636C209.723 166.412 210.18 166.3 210.712 166.3H211.16V167.924H210.502C209.979 167.924 209.559 168.087 209.242 168.414C208.925 168.731 208.766 169.179 208.766 169.758V174H206.932ZM212.168 174V166.384H214.002V174H212.168ZM212.168 165.53V163.57H214.002V165.53H212.168ZM215.696 174V166.384H217.418V168.148L217.222 167.854C217.362 167.303 217.642 166.893 218.062 166.622C218.482 166.351 218.976 166.216 219.546 166.216C220.171 166.216 220.722 166.379 221.198 166.706C221.674 167.033 221.982 167.462 222.122 167.994L221.604 168.036C221.837 167.429 222.187 166.977 222.654 166.678C223.12 166.37 223.657 166.216 224.264 166.216C224.805 166.216 225.286 166.337 225.706 166.58C226.135 166.823 226.471 167.163 226.714 167.602C226.956 168.031 227.078 168.531 227.078 169.1V174H225.244V169.534C225.244 169.198 225.183 168.909 225.062 168.666C224.94 168.423 224.772 168.237 224.558 168.106C224.343 167.966 224.082 167.896 223.774 167.896C223.484 167.896 223.228 167.966 223.004 168.106C222.78 168.237 222.607 168.423 222.486 168.666C222.364 168.909 222.304 169.198 222.304 169.534V174H220.47V169.534C220.47 169.198 220.409 168.909 220.288 168.666C220.166 168.423 219.994 168.237 219.77 168.106C219.555 167.966 219.298 167.896 219 167.896C218.71 167.896 218.454 167.966 218.23 168.106C218.006 168.237 217.833 168.423 217.712 168.666C217.59 168.909 217.53 169.198 217.53 169.534V174H215.696ZM230.939 174.168C230.407 174.168 229.945 174.079 229.553 173.902C229.161 173.725 228.858 173.473 228.643 173.146C228.429 172.81 228.321 172.423 228.321 171.984C228.321 171.564 228.415 171.191 228.601 170.864C228.788 170.528 229.077 170.248 229.469 170.024C229.861 169.8 230.356 169.641 230.953 169.548L233.445 169.142V170.542L231.303 170.906C230.939 170.971 230.669 171.088 230.491 171.256C230.314 171.424 230.225 171.643 230.225 171.914C230.225 172.175 230.323 172.385 230.519 172.544C230.725 172.693 230.977 172.768 231.275 172.768C231.658 172.768 231.994 172.689 232.283 172.53C232.582 172.362 232.811 172.133 232.969 171.844C233.137 171.555 233.221 171.237 233.221 170.892V168.932C233.221 168.605 233.091 168.335 232.829 168.12C232.577 167.896 232.241 167.784 231.821 167.784C231.429 167.784 231.079 167.891 230.771 168.106C230.473 168.311 230.253 168.587 230.113 168.932L228.615 168.204C228.765 167.803 228.998 167.457 229.315 167.168C229.642 166.869 230.025 166.636 230.463 166.468C230.902 166.3 231.378 166.216 231.891 166.216C232.517 166.216 233.067 166.333 233.543 166.566C234.019 166.79 234.388 167.107 234.649 167.518C234.92 167.919 235.055 168.391 235.055 168.932V174H233.319V172.698L233.711 172.67C233.515 172.997 233.282 173.272 233.011 173.496C232.741 173.711 232.433 173.879 232.087 174C231.742 174.112 231.359 174.168 230.939 174.168ZM236.75 174V166.384H238.472V168.078L238.332 167.826C238.51 167.257 238.785 166.86 239.158 166.636C239.541 166.412 239.998 166.3 240.53 166.3H240.978V167.924H240.32C239.798 167.924 239.378 168.087 239.06 168.414C238.743 168.731 238.584 169.179 238.584 169.758V174H236.75ZM242.911 177.08C242.705 177.08 242.505 177.061 242.309 177.024C242.113 176.996 241.935 176.94 241.777 176.856V175.33C241.898 175.358 242.043 175.386 242.211 175.414C242.388 175.442 242.551 175.456 242.701 175.456C243.121 175.456 243.424 175.358 243.611 175.162C243.807 174.975 243.979 174.723 244.129 174.406L244.633 173.23L244.605 174.77L241.287 166.384H243.261L245.585 172.572H244.885L247.195 166.384H249.183L245.865 174.77C245.669 175.255 245.431 175.671 245.151 176.016C244.871 176.361 244.544 176.623 244.171 176.8C243.807 176.987 243.387 177.08 242.911 177.08ZM198.008 192V181.57H204.938V183.25H199.912V185.924H204.658V187.604H199.912V190.32H204.938V192H198.008ZM206.18 192V184.384H207.902V186.148L207.706 185.854C207.846 185.303 208.126 184.893 208.546 184.622C208.966 184.351 209.461 184.216 210.03 184.216C210.656 184.216 211.206 184.379 211.682 184.706C212.158 185.033 212.466 185.462 212.606 185.994L212.088 186.036C212.322 185.429 212.672 184.977 213.138 184.678C213.605 184.37 214.142 184.216 214.748 184.216C215.29 184.216 215.77 184.337 216.19 184.58C216.62 184.823 216.956 185.163 217.198 185.602C217.441 186.031 217.562 186.531 217.562 187.1V192H215.728V187.534C215.728 187.198 215.668 186.909 215.546 186.666C215.425 186.423 215.257 186.237 215.042 186.106C214.828 185.966 214.566 185.896 214.258 185.896C213.969 185.896 213.712 185.966 213.488 186.106C213.264 186.237 213.092 186.423 212.97 186.666C212.849 186.909 212.788 187.198 212.788 187.534V192H210.954V187.534C210.954 187.198 210.894 186.909 210.772 186.666C210.651 186.423 210.478 186.237 210.254 186.106C210.04 185.966 209.783 185.896 209.484 185.896C209.195 185.896 208.938 185.966 208.714 186.106C208.49 186.237 208.318 186.423 208.196 186.666C208.075 186.909 208.014 187.198 208.014 187.534V192H206.18ZM219.114 192V184.384H220.948V192H219.114ZM219.114 183.53V181.57H220.948V183.53H219.114ZM225.539 192.168C224.727 192.168 224.018 191.977 223.411 191.594C222.814 191.202 222.403 190.675 222.179 190.012L223.551 189.354C223.747 189.783 224.018 190.119 224.363 190.362C224.718 190.605 225.11 190.726 225.539 190.726C225.875 190.726 226.141 190.651 226.337 190.502C226.533 190.353 226.631 190.157 226.631 189.914C226.631 189.765 226.589 189.643 226.505 189.55C226.43 189.447 226.323 189.363 226.183 189.298C226.052 189.223 225.908 189.163 225.749 189.116L224.503 188.766C223.859 188.579 223.369 188.295 223.033 187.912C222.706 187.529 222.543 187.077 222.543 186.554C222.543 186.087 222.66 185.681 222.893 185.336C223.136 184.981 223.467 184.706 223.887 184.51C224.316 184.314 224.806 184.216 225.357 184.216C226.076 184.216 226.71 184.389 227.261 184.734C227.812 185.079 228.204 185.565 228.437 186.19L227.037 186.848C226.906 186.503 226.687 186.227 226.379 186.022C226.071 185.817 225.726 185.714 225.343 185.714C225.035 185.714 224.792 185.784 224.615 185.924C224.438 186.064 224.349 186.246 224.349 186.47C224.349 186.61 224.386 186.731 224.461 186.834C224.536 186.937 224.638 187.021 224.769 187.086C224.909 187.151 225.068 187.212 225.245 187.268L226.463 187.632C227.088 187.819 227.569 188.099 227.905 188.472C228.25 188.845 228.423 189.303 228.423 189.844C228.423 190.301 228.302 190.707 228.059 191.062C227.816 191.407 227.48 191.678 227.051 191.874C226.622 192.07 226.118 192.168 225.539 192.168ZM232.731 192.168C231.919 192.168 231.209 191.977 230.603 191.594C230.005 191.202 229.595 190.675 229.371 190.012L230.743 189.354C230.939 189.783 231.209 190.119 231.555 190.362C231.909 190.605 232.301 190.726 232.731 190.726C233.067 190.726 233.333 190.651 233.529 190.502C233.725 190.353 233.823 190.157 233.823 189.914C233.823 189.765 233.781 189.643 233.697 189.55C233.622 189.447 233.515 189.363 233.375 189.298C233.244 189.223 233.099 189.163 232.941 189.116L231.695 188.766C231.051 188.579 230.561 188.295 230.225 187.912C229.898 187.529 229.735 187.077 229.735 186.554C229.735 186.087 229.851 185.681 230.085 185.336C230.327 184.981 230.659 184.706 231.079 184.51C231.508 184.314 231.998 184.216 232.549 184.216C233.267 184.216 233.902 184.389 234.453 184.734C235.003 185.079 235.395 185.565 235.629 186.19L234.229 186.848C234.098 186.503 233.879 186.227 233.571 186.022C233.263 185.817 232.917 185.714 232.535 185.714C232.227 185.714 231.984 185.784 231.807 185.924C231.629 186.064 231.541 186.246 231.541 186.47C231.541 186.61 231.578 186.731 231.653 186.834C231.727 186.937 231.83 187.021 231.961 187.086C232.101 187.151 232.259 187.212 232.437 187.268L233.655 187.632C234.28 187.819 234.761 188.099 235.097 188.472C235.442 188.845 235.615 189.303 235.615 189.844C235.615 190.301 235.493 190.707 235.251 191.062C235.008 191.407 234.672 191.678 234.243 191.874C233.813 192.07 233.309 192.168 232.731 192.168ZM237.024 192V184.384H238.858V192H237.024ZM237.024 183.53V181.57H238.858V183.53H237.024ZM244.275 192.168C243.529 192.168 242.847 191.995 242.231 191.65C241.625 191.305 241.139 190.833 240.775 190.236C240.421 189.639 240.243 188.957 240.243 188.192C240.243 187.427 240.421 186.745 240.775 186.148C241.139 185.551 241.625 185.079 242.231 184.734C242.838 184.389 243.519 184.216 244.275 184.216C245.022 184.216 245.699 184.389 246.305 184.734C246.912 185.079 247.393 185.551 247.747 186.148C248.111 186.736 248.293 187.417 248.293 188.192C248.293 188.957 248.111 189.639 247.747 190.236C247.383 190.833 246.898 191.305 246.291 191.65C245.685 191.995 245.013 192.168 244.275 192.168ZM244.275 190.488C244.686 190.488 245.045 190.39 245.353 190.194C245.671 189.998 245.918 189.727 246.095 189.382C246.282 189.027 246.375 188.631 246.375 188.192C246.375 187.744 246.282 187.352 246.095 187.016C245.918 186.671 245.671 186.4 245.353 186.204C245.045 185.999 244.686 185.896 244.275 185.896C243.855 185.896 243.487 185.999 243.169 186.204C242.852 186.4 242.6 186.671 242.413 187.016C242.236 187.352 242.147 187.744 242.147 188.192C242.147 188.631 242.236 189.027 242.413 189.382C242.6 189.727 242.852 189.998 243.169 190.194C243.487 190.39 243.855 190.488 244.275 190.488ZM249.684 192V184.384H251.406V185.882L251.266 185.616C251.443 185.159 251.733 184.813 252.134 184.58C252.545 184.337 253.021 184.216 253.562 184.216C254.122 184.216 254.617 184.337 255.046 184.58C255.485 184.823 255.825 185.163 256.068 185.602C256.311 186.031 256.432 186.531 256.432 187.1V192H254.598V187.534C254.598 187.198 254.533 186.909 254.402 186.666C254.271 186.423 254.089 186.237 253.856 186.106C253.632 185.966 253.366 185.896 253.058 185.896C252.759 185.896 252.493 185.966 252.26 186.106C252.027 186.237 251.845 186.423 251.714 186.666C251.583 186.909 251.518 187.198 251.518 187.534V192H249.684ZM260.625 192V181.57H264.517C265.227 181.57 265.852 181.701 266.393 181.962C266.944 182.214 267.373 182.587 267.681 183.082C267.989 183.567 268.143 184.16 268.143 184.86C268.143 185.551 267.985 186.143 267.667 186.638C267.359 187.123 266.935 187.497 266.393 187.758C265.852 188.019 265.227 188.15 264.517 188.15H262.529V192H260.625ZM262.529 186.47H264.545C264.891 186.47 265.189 186.405 265.441 186.274C265.693 186.134 265.889 185.943 266.029 185.7C266.169 185.457 266.239 185.177 266.239 184.86C266.239 184.533 266.169 184.253 266.029 184.02C265.889 183.777 265.693 183.591 265.441 183.46C265.189 183.32 264.891 183.25 264.545 183.25H262.529V186.47ZM273 192.168C272.253 192.168 271.572 191.995 270.956 191.65C270.349 191.305 269.864 190.833 269.5 190.236C269.145 189.639 268.968 188.957 268.968 188.192C268.968 187.427 269.145 186.745 269.5 186.148C269.864 185.551 270.349 185.079 270.956 184.734C271.563 184.389 272.244 184.216 273 184.216C273.747 184.216 274.423 184.389 275.03 184.734C275.637 185.079 276.117 185.551 276.472 186.148C276.836 186.736 277.018 187.417 277.018 188.192C277.018 188.957 276.836 189.639 276.472 190.236C276.108 190.833 275.623 191.305 275.016 191.65C274.409 191.995 273.737 192.168 273 192.168ZM273 190.488C273.411 190.488 273.77 190.39 274.078 190.194C274.395 189.998 274.643 189.727 274.82 189.382C275.007 189.027 275.1 188.631 275.1 188.192C275.1 187.744 275.007 187.352 274.82 187.016C274.643 186.671 274.395 186.4 274.078 186.204C273.77 185.999 273.411 185.896 273 185.896C272.58 185.896 272.211 185.999 271.894 186.204C271.577 186.4 271.325 186.671 271.138 187.016C270.961 187.352 270.872 187.744 270.872 188.192C270.872 188.631 270.961 189.027 271.138 189.382C271.325 189.727 271.577 189.998 271.894 190.194C272.211 190.39 272.58 190.488 273 190.488ZM282.133 192.168C281.386 192.168 280.705 191.995 280.089 191.65C279.482 191.305 278.997 190.833 278.633 190.236C278.278 189.639 278.101 188.957 278.101 188.192C278.101 187.427 278.278 186.745 278.633 186.148C278.997 185.551 279.482 185.079 280.089 184.734C280.695 184.389 281.377 184.216 282.133 184.216C282.879 184.216 283.556 184.389 284.163 184.734C284.769 185.079 285.25 185.551 285.605 186.148C285.969 186.736 286.151 187.417 286.151 188.192C286.151 188.957 285.969 189.639 285.605 190.236C285.241 190.833 284.755 191.305 284.149 191.65C283.542 191.995 282.87 192.168 282.133 192.168ZM282.133 190.488C282.543 190.488 282.903 190.39 283.211 190.194C283.528 189.998 283.775 189.727 283.953 189.382C284.139 189.027 284.233 188.631 284.233 188.192C284.233 187.744 284.139 187.352 283.953 187.016C283.775 186.671 283.528 186.4 283.211 186.204C282.903 185.999 282.543 185.896 282.133 185.896C281.713 185.896 281.344 185.999 281.027 186.204C280.709 186.4 280.457 186.671 280.271 187.016C280.093 187.352 280.005 187.744 280.005 188.192C280.005 188.631 280.093 189.027 280.271 189.382C280.457 189.727 280.709 189.998 281.027 190.194C281.344 190.39 281.713 190.488 282.133 190.488ZM287.542 192V181.402H289.376V192H287.542Z" fill="white"/>
<path d="M184.008 65V54.57H185.912V63.32H190.378V65H184.008ZM191.456 65V57.384H193.29V65H191.456ZM191.456 56.53V54.57H193.29V56.53H191.456ZM200.849 67.8V63.53L201.143 63.894C200.882 64.3047 200.518 64.622 200.051 64.846C199.584 65.0607 199.076 65.168 198.525 65.168C197.788 65.168 197.13 64.9953 196.551 64.65C195.972 64.2953 195.515 63.8147 195.179 63.208C194.843 62.6013 194.675 61.9293 194.675 61.192C194.675 60.4453 194.843 59.7733 195.179 59.176C195.515 58.5787 195.972 58.1027 196.551 57.748C197.139 57.3933 197.792 57.216 198.511 57.216C199.09 57.216 199.603 57.3327 200.051 57.566C200.508 57.79 200.868 58.1073 201.129 58.518L200.947 58.896V57.384H202.683V67.8H200.849ZM198.721 63.488C199.141 63.488 199.51 63.39 199.827 63.194C200.144 62.998 200.392 62.7273 200.569 62.382C200.756 62.0367 200.849 61.64 200.849 61.192C200.849 60.7533 200.756 60.3613 200.569 60.016C200.392 59.6613 200.144 59.386 199.827 59.19C199.51 58.994 199.141 58.896 198.721 58.896C198.31 58.896 197.942 58.9987 197.615 59.204C197.288 59.4 197.032 59.6707 196.845 60.016C196.668 60.352 196.579 60.744 196.579 61.192C196.579 61.64 196.668 62.0367 196.845 62.382C197.032 62.7273 197.288 62.998 197.615 63.194C197.942 63.39 198.31 63.488 198.721 63.488ZM207.105 65.168C206.517 65.168 206.004 65.0373 205.565 64.776C205.136 64.5147 204.804 64.1507 204.571 63.684C204.347 63.2173 204.235 62.6713 204.235 62.046V57.384H206.069V61.892C206.069 62.2093 206.13 62.4893 206.251 62.732C206.382 62.9653 206.564 63.152 206.797 63.292C207.04 63.4227 207.31 63.488 207.609 63.488C207.908 63.488 208.174 63.4227 208.407 63.292C208.64 63.152 208.822 62.9607 208.953 62.718C209.084 62.4753 209.149 62.186 209.149 61.85V57.384H210.983V65H209.247V63.502L209.401 63.768C209.224 64.2347 208.93 64.5847 208.519 64.818C208.118 65.0513 207.646 65.168 207.105 65.168ZM212.688 65V57.384H214.522V65H212.688ZM212.688 56.53V54.57H214.522V56.53H212.688ZM219.757 65.168C219.02 65.168 218.362 64.9953 217.783 64.65C217.205 64.2953 216.747 63.8147 216.411 63.208C216.075 62.6013 215.907 61.9293 215.907 61.192C215.907 60.4453 216.075 59.7733 216.411 59.176C216.747 58.5787 217.205 58.1027 217.783 57.748C218.371 57.3933 219.025 57.216 219.743 57.216C220.322 57.216 220.835 57.3327 221.283 57.566C221.741 57.79 222.1 58.1073 222.361 58.518L222.081 58.896V54.402H223.915V65H222.179V63.53L222.375 63.894C222.114 64.3047 221.75 64.622 221.283 64.846C220.817 65.0607 220.308 65.168 219.757 65.168ZM219.953 63.488C220.373 63.488 220.742 63.39 221.059 63.194C221.377 62.998 221.624 62.7273 221.801 62.382C221.988 62.0367 222.081 61.64 222.081 61.192C222.081 60.7533 221.988 60.3613 221.801 60.016C221.624 59.6613 221.377 59.386 221.059 59.19C220.742 58.994 220.373 58.896 219.953 58.896C219.543 58.896 219.174 58.9987 218.847 59.204C218.521 59.4 218.264 59.6707 218.077 60.016C217.9 60.352 217.811 60.744 217.811 61.192C217.811 61.64 217.9 62.0367 218.077 62.382C218.264 62.7273 218.521 62.998 218.847 63.194C219.174 63.39 219.543 63.488 219.953 63.488ZM225.622 65V57.384H227.456V65H225.622ZM225.622 56.53V54.57H227.456V56.53H225.622ZM232.621 65.084C231.762 65.084 231.095 64.8507 230.619 64.384C230.152 63.908 229.919 63.2407 229.919 62.382V59.022H228.603V57.384H228.743C229.116 57.384 229.406 57.286 229.611 57.09C229.816 56.894 229.919 56.6093 229.919 56.236V55.648H231.753V57.384H233.503V59.022H231.753V62.284C231.753 62.536 231.795 62.7507 231.879 62.928C231.972 63.1053 232.112 63.2407 232.299 63.334C232.495 63.4273 232.742 63.474 233.041 63.474C233.106 63.474 233.181 63.4693 233.265 63.46C233.358 63.4507 233.447 63.4413 233.531 63.432V65C233.4 65.0187 233.251 65.0373 233.083 65.056C232.915 65.0747 232.761 65.084 232.621 65.084ZM235.856 68.08C235.651 68.08 235.45 68.0613 235.254 68.024C235.058 67.996 234.881 67.94 234.722 67.856V66.33C234.843 66.358 234.988 66.386 235.156 66.414C235.333 66.442 235.497 66.456 235.646 66.456C236.066 66.456 236.369 66.358 236.556 66.162C236.752 65.9753 236.925 65.7233 237.074 65.406L237.578 64.23L237.55 65.77L234.232 57.384H236.206L238.53 63.572H237.83L240.14 57.384H242.128L238.81 65.77C238.614 66.2553 238.376 66.6707 238.096 67.016C237.816 67.3613 237.489 67.6227 237.116 67.8C236.752 67.9867 236.332 68.08 235.856 68.08Z" fill="white"/>
</g>
<defs>
<filter id="filter0_i_1_1676" x="0.116489" y="0" width="320.883" height="329.002" filterUnits="userSpaceOnUse" color-interpolation-filters="sRGB">
<feFlood flood-opacity="0" result="BackgroundImageFix"/>
<feBlend mode="normal" in="SourceGraphic" in2="BackgroundImageFix" result="shape"/>
<feColorMatrix in="SourceAlpha" type="matrix" values="0 0 0 0 0 0 0 0 0 0 0 0 0 0 0 0 0 0 127 0" result="hardAlpha"/>
<feOffset dy="4"/>
<feGaussianBlur stdDeviation="2"/>
<feComposite in2="hardAlpha" operator="arithmetic" k2="-1" k3="1"/>
<feColorMatrix type="matrix" values="0 0 0 0 0 0 0 0 0 0 0 0 0 0 0 0 0 0 0.25 0"/>
<feBlend mode="normal" in2="shape" result="effect1_innerShadow_1_1676"/>
</filter>
</defs>
</svg>
